<mxfile host="Electron" agent="Mozilla/5.0 (Windows NT 10.0; Win64; x64) AppleWebKit/537.36 (KHTML, like Gecko) draw.io/24.7.17 Chrome/128.0.6613.36 Electron/32.0.1 Safari/537.36" version="24.7.17">
  <diagram name="Page-1" id="2FNYmYsBMbGa0UGhw50T">
    <mxGraphModel dx="1434" dy="844" grid="1" gridSize="10" guides="1" tooltips="1" connect="1" arrows="1" fold="1" page="1" pageScale="1" pageWidth="850" pageHeight="1100" math="0" shadow="0">
      <root>
        <mxCell id="0" />
        <mxCell id="1" parent="0" />
        <mxCell id="Qtmw9_Csoa64nNfkD8jf-1" value="&lt;font style=&quot;font-size: 25px;&quot;&gt;Attendance Portal - Morning Class&lt;/font&gt;" style="rounded=0;whiteSpace=wrap;html=1;" vertex="1" parent="1">
          <mxGeometry x="80" y="410" width="700" height="60" as="geometry" />
        </mxCell>
        <mxCell id="Qtmw9_Csoa64nNfkD8jf-2" value="" style="rounded=0;whiteSpace=wrap;html=1;" vertex="1" parent="1">
          <mxGeometry x="80" y="470" width="700" height="370" as="geometry" />
        </mxCell>
        <mxCell id="Qtmw9_Csoa64nNfkD8jf-5" value="Name" style="rounded=0;whiteSpace=wrap;html=1;" vertex="1" parent="1">
          <mxGeometry x="140" y="560" width="220" height="210" as="geometry" />
        </mxCell>
        <mxCell id="Qtmw9_Csoa64nNfkD8jf-6" value="Name" style="rounded=0;whiteSpace=wrap;html=1;" vertex="1" parent="1">
          <mxGeometry x="140" y="560" width="220" height="30" as="geometry" />
        </mxCell>
        <mxCell id="Qtmw9_Csoa64nNfkD8jf-7" value="Name" style="rounded=0;whiteSpace=wrap;html=1;" vertex="1" parent="1">
          <mxGeometry x="140" y="590" width="220" height="30" as="geometry" />
        </mxCell>
        <mxCell id="Qtmw9_Csoa64nNfkD8jf-8" value="Name" style="rounded=0;whiteSpace=wrap;html=1;" vertex="1" parent="1">
          <mxGeometry x="140" y="620" width="220" height="30" as="geometry" />
        </mxCell>
        <mxCell id="Qtmw9_Csoa64nNfkD8jf-9" value="Name" style="rounded=0;whiteSpace=wrap;html=1;" vertex="1" parent="1">
          <mxGeometry x="140" y="650" width="220" height="30" as="geometry" />
        </mxCell>
        <mxCell id="Qtmw9_Csoa64nNfkD8jf-10" value="Name" style="rounded=0;whiteSpace=wrap;html=1;" vertex="1" parent="1">
          <mxGeometry x="140" y="680" width="220" height="30" as="geometry" />
        </mxCell>
        <mxCell id="Qtmw9_Csoa64nNfkD8jf-11" value="Name" style="rounded=0;whiteSpace=wrap;html=1;" vertex="1" parent="1">
          <mxGeometry x="140" y="710" width="220" height="30" as="geometry" />
        </mxCell>
        <mxCell id="Qtmw9_Csoa64nNfkD8jf-13" value="Name" style="rounded=0;whiteSpace=wrap;html=1;" vertex="1" parent="1">
          <mxGeometry x="140" y="740" width="220" height="30" as="geometry" />
        </mxCell>
        <mxCell id="Qtmw9_Csoa64nNfkD8jf-14" value="Present" style="rounded=0;whiteSpace=wrap;html=1;fillColor=#60a917;fontColor=#ffffff;strokeColor=#2D7600;" vertex="1" parent="1">
          <mxGeometry x="440" y="560" width="100" height="50" as="geometry" />
        </mxCell>
        <mxCell id="Qtmw9_Csoa64nNfkD8jf-15" value="Absent" style="rounded=0;whiteSpace=wrap;html=1;fillColor=#a20025;fontColor=#ffffff;strokeColor=#6F0000;" vertex="1" parent="1">
          <mxGeometry x="590" y="560" width="110" height="50" as="geometry" />
        </mxCell>
        <mxCell id="Qtmw9_Csoa64nNfkD8jf-16" value="&lt;font color=&quot;#000000&quot;&gt;Update&lt;/font&gt;" style="rounded=0;whiteSpace=wrap;html=1;fillColor=#f5f5f5;strokeColor=#666666;gradientColor=#b3b3b3;" vertex="1" parent="1">
          <mxGeometry x="500" y="680" width="120" height="40" as="geometry" />
        </mxCell>
        <mxCell id="Qtmw9_Csoa64nNfkD8jf-17" value="" style="rounded=0;whiteSpace=wrap;html=1;" vertex="1" parent="1">
          <mxGeometry x="360" y="560" width="20" height="210" as="geometry" />
        </mxCell>
        <mxCell id="Qtmw9_Csoa64nNfkD8jf-18" value="" style="rounded=0;whiteSpace=wrap;html=1;fillColor=#d0cee2;strokeColor=#56517e;" vertex="1" parent="1">
          <mxGeometry x="360" y="560" width="20" height="180" as="geometry" />
        </mxCell>
        <mxCell id="Qtmw9_Csoa64nNfkD8jf-22" value="" style="rounded=0;whiteSpace=wrap;html=1;" vertex="1" parent="1">
          <mxGeometry x="80" y="20" width="700" height="370" as="geometry" />
        </mxCell>
        <mxCell id="Qtmw9_Csoa64nNfkD8jf-24" value="Chose Class" style="text;html=1;align=center;verticalAlign=middle;whiteSpace=wrap;rounded=0;" vertex="1" parent="1">
          <mxGeometry x="347.5" y="70" width="165" height="30" as="geometry" />
        </mxCell>
        <mxCell id="Qtmw9_Csoa64nNfkD8jf-25" value="&lt;font color=&quot;#000000&quot;&gt;Morning Class&lt;/font&gt;" style="rounded=0;whiteSpace=wrap;html=1;fillColor=#fff2cc;gradientColor=#ffd966;strokeColor=#d6b656;" vertex="1" parent="1">
          <mxGeometry x="210" y="175" width="120" height="60" as="geometry" />
        </mxCell>
        <mxCell id="Qtmw9_Csoa64nNfkD8jf-26" value="&lt;font color=&quot;#000000&quot;&gt;Evening Class&lt;/font&gt;" style="rounded=0;whiteSpace=wrap;html=1;fillColor=#fff2cc;gradientColor=#ffd966;strokeColor=#d6b656;" vertex="1" parent="1">
          <mxGeometry x="512.5" y="175" width="120" height="60" as="geometry" />
        </mxCell>
      </root>
    </mxGraphModel>
  </diagram>
</mxfile>
